<mxfile host="Electron" agent="Mozilla/5.0 (Windows NT 10.0; Win64; x64) AppleWebKit/537.36 (KHTML, like Gecko) draw.io/28.1.2 Chrome/138.0.7204.243 Electron/37.4.0 Safari/537.36" version="28.1.2">
  <diagram name="Page-1" id="xVg7E-c3DgXaiie6U8fJ">
    <mxGraphModel dx="1042" dy="626" grid="1" gridSize="10" guides="1" tooltips="1" connect="1" arrows="1" fold="1" page="1" pageScale="1" pageWidth="850" pageHeight="1100" math="0" shadow="0">
      <root>
        <mxCell id="0" />
        <mxCell id="1" parent="0" />
        <mxCell id="Sv1aqGPo5gHrHZcfWlAV-1" value="" style="rounded=0;whiteSpace=wrap;html=1;dashed=1;" parent="1" vertex="1">
          <mxGeometry x="150" y="200" width="150" height="560" as="geometry" />
        </mxCell>
        <mxCell id="Sv1aqGPo5gHrHZcfWlAV-2" value="&lt;font style=&quot;font-size: 24px;&quot;&gt;Sources&lt;/font&gt;" style="text;html=1;align=center;verticalAlign=middle;whiteSpace=wrap;rounded=0;fillColor=default;" parent="1" vertex="1">
          <mxGeometry x="165" y="180" width="120" height="30" as="geometry" />
        </mxCell>
        <mxCell id="Sv1aqGPo5gHrHZcfWlAV-15" style="edgeStyle=orthogonalEdgeStyle;rounded=0;orthogonalLoop=1;jettySize=auto;html=1;entryX=0;entryY=0.5;entryDx=0;entryDy=0;" parent="1" source="Sv1aqGPo5gHrHZcfWlAV-3" target="Sv1aqGPo5gHrHZcfWlAV-9" edge="1">
          <mxGeometry relative="1" as="geometry" />
        </mxCell>
        <mxCell id="Sv1aqGPo5gHrHZcfWlAV-16" style="edgeStyle=orthogonalEdgeStyle;rounded=0;orthogonalLoop=1;jettySize=auto;html=1;" parent="1" source="Sv1aqGPo5gHrHZcfWlAV-3" target="Sv1aqGPo5gHrHZcfWlAV-10" edge="1">
          <mxGeometry relative="1" as="geometry" />
        </mxCell>
        <mxCell id="Sv1aqGPo5gHrHZcfWlAV-17" style="edgeStyle=orthogonalEdgeStyle;rounded=0;orthogonalLoop=1;jettySize=auto;html=1;entryX=0;entryY=0.5;entryDx=0;entryDy=0;" parent="1" source="Sv1aqGPo5gHrHZcfWlAV-3" target="Sv1aqGPo5gHrHZcfWlAV-11" edge="1">
          <mxGeometry relative="1" as="geometry" />
        </mxCell>
        <mxCell id="Sv1aqGPo5gHrHZcfWlAV-3" value="&lt;b&gt;&lt;font style=&quot;font-size: 14px;&quot;&gt;CRM&lt;/font&gt;&lt;/b&gt;" style="image;aspect=fixed;html=1;points=[];align=center;fontSize=12;image=img/lib/azure2/general/Folder_Blank.svg;" parent="1" vertex="1">
          <mxGeometry x="190" y="330" width="50" height="40.58" as="geometry" />
        </mxCell>
        <mxCell id="Sv1aqGPo5gHrHZcfWlAV-18" style="edgeStyle=orthogonalEdgeStyle;rounded=0;orthogonalLoop=1;jettySize=auto;html=1;entryX=0;entryY=0.5;entryDx=0;entryDy=0;" parent="1" source="Sv1aqGPo5gHrHZcfWlAV-4" target="Sv1aqGPo5gHrHZcfWlAV-12" edge="1">
          <mxGeometry relative="1" as="geometry" />
        </mxCell>
        <mxCell id="Sv1aqGPo5gHrHZcfWlAV-19" style="edgeStyle=orthogonalEdgeStyle;rounded=0;orthogonalLoop=1;jettySize=auto;html=1;entryX=0;entryY=0.5;entryDx=0;entryDy=0;" parent="1" source="Sv1aqGPo5gHrHZcfWlAV-4" target="Sv1aqGPo5gHrHZcfWlAV-13" edge="1">
          <mxGeometry relative="1" as="geometry" />
        </mxCell>
        <mxCell id="Sv1aqGPo5gHrHZcfWlAV-20" style="edgeStyle=orthogonalEdgeStyle;rounded=0;orthogonalLoop=1;jettySize=auto;html=1;entryX=0;entryY=0.5;entryDx=0;entryDy=0;" parent="1" source="Sv1aqGPo5gHrHZcfWlAV-4" target="Sv1aqGPo5gHrHZcfWlAV-14" edge="1">
          <mxGeometry relative="1" as="geometry" />
        </mxCell>
        <mxCell id="Sv1aqGPo5gHrHZcfWlAV-4" value="&lt;b&gt;&lt;font style=&quot;font-size: 14px;&quot;&gt;ERP&lt;/font&gt;&lt;/b&gt;" style="image;aspect=fixed;html=1;points=[];align=center;fontSize=12;image=img/lib/azure2/general/Folder_Blank.svg;" parent="1" vertex="1">
          <mxGeometry x="202.83" y="570" width="50" height="40.58" as="geometry" />
        </mxCell>
        <mxCell id="Sv1aqGPo5gHrHZcfWlAV-5" value="" style="image;aspect=fixed;html=1;points=[];align=center;fontSize=12;image=img/lib/azure2/general/File.svg;" parent="1" vertex="1">
          <mxGeometry x="215.65" y="340.58" width="24.35" height="30" as="geometry" />
        </mxCell>
        <mxCell id="Sv1aqGPo5gHrHZcfWlAV-6" value="" style="image;aspect=fixed;html=1;points=[];align=center;fontSize=12;image=img/lib/azure2/general/File.svg;" parent="1" vertex="1">
          <mxGeometry x="228.48000000000002" y="580.58" width="24.35" height="30" as="geometry" />
        </mxCell>
        <mxCell id="Sv1aqGPo5gHrHZcfWlAV-7" value="" style="rounded=0;whiteSpace=wrap;html=1;fillStyle=hatch;fillColor=default;gradientColor=none;strokeColor=#d79b00;dashed=1;" parent="1" vertex="1">
          <mxGeometry x="370" y="250" width="200" height="510" as="geometry" />
        </mxCell>
        <mxCell id="Sv1aqGPo5gHrHZcfWlAV-8" value="&lt;font style=&quot;font-size: 20px;&quot;&gt;&lt;b style=&quot;&quot;&gt;Bronze layer&lt;/b&gt;&lt;/font&gt;" style="text;html=1;align=center;verticalAlign=middle;whiteSpace=wrap;rounded=0;fillColor=#ffcd28;gradientColor=#ffa500;strokeColor=#d79b00;" parent="1" vertex="1">
          <mxGeometry x="370" y="190" width="200" height="50" as="geometry" />
        </mxCell>
        <mxCell id="hZiMMcwlTSeB9dH6yMoZ-9" style="edgeStyle=orthogonalEdgeStyle;rounded=0;orthogonalLoop=1;jettySize=auto;html=1;entryX=0;entryY=0.5;entryDx=0;entryDy=0;" edge="1" parent="1" source="Sv1aqGPo5gHrHZcfWlAV-9" target="hZiMMcwlTSeB9dH6yMoZ-3">
          <mxGeometry relative="1" as="geometry" />
        </mxCell>
        <mxCell id="Sv1aqGPo5gHrHZcfWlAV-9" value="&lt;span style=&quot;font-size: 16px;&quot;&gt;crm_sales_details&lt;/span&gt;" style="text;html=1;align=center;verticalAlign=middle;whiteSpace=wrap;rounded=0;fillColor=#ffcd28;gradientColor=#ffa500;strokeColor=#d79b00;" parent="1" vertex="1">
          <mxGeometry x="380" y="270" width="180" height="40" as="geometry" />
        </mxCell>
        <mxCell id="hZiMMcwlTSeB9dH6yMoZ-10" style="edgeStyle=orthogonalEdgeStyle;rounded=0;orthogonalLoop=1;jettySize=auto;html=1;exitX=1;exitY=0.5;exitDx=0;exitDy=0;entryX=0;entryY=0.5;entryDx=0;entryDy=0;" edge="1" parent="1" source="Sv1aqGPo5gHrHZcfWlAV-10" target="hZiMMcwlTSeB9dH6yMoZ-4">
          <mxGeometry relative="1" as="geometry" />
        </mxCell>
        <mxCell id="Sv1aqGPo5gHrHZcfWlAV-10" value="&lt;span style=&quot;font-size: 16px;&quot;&gt;crm_cust_info&lt;/span&gt;" style="text;html=1;align=center;verticalAlign=middle;whiteSpace=wrap;rounded=0;fillColor=#ffcd28;gradientColor=#ffa500;strokeColor=#d79b00;" parent="1" vertex="1">
          <mxGeometry x="380" y="330" width="180" height="40" as="geometry" />
        </mxCell>
        <mxCell id="hZiMMcwlTSeB9dH6yMoZ-11" style="edgeStyle=orthogonalEdgeStyle;rounded=0;orthogonalLoop=1;jettySize=auto;html=1;exitX=1;exitY=0.5;exitDx=0;exitDy=0;" edge="1" parent="1" source="Sv1aqGPo5gHrHZcfWlAV-11" target="hZiMMcwlTSeB9dH6yMoZ-5">
          <mxGeometry relative="1" as="geometry" />
        </mxCell>
        <mxCell id="Sv1aqGPo5gHrHZcfWlAV-11" value="&lt;span style=&quot;font-size: 16px;&quot;&gt;crm_prd_info&lt;/span&gt;" style="text;html=1;align=center;verticalAlign=middle;whiteSpace=wrap;rounded=0;fillColor=#ffcd28;gradientColor=#ffa500;strokeColor=#d79b00;" parent="1" vertex="1">
          <mxGeometry x="380" y="400" width="180" height="40" as="geometry" />
        </mxCell>
        <mxCell id="hZiMMcwlTSeB9dH6yMoZ-12" style="edgeStyle=orthogonalEdgeStyle;rounded=0;orthogonalLoop=1;jettySize=auto;html=1;exitX=1;exitY=0.5;exitDx=0;exitDy=0;" edge="1" parent="1" source="Sv1aqGPo5gHrHZcfWlAV-12" target="hZiMMcwlTSeB9dH6yMoZ-6">
          <mxGeometry relative="1" as="geometry" />
        </mxCell>
        <mxCell id="Sv1aqGPo5gHrHZcfWlAV-12" value="&lt;span style=&quot;font-size: 16px;&quot;&gt;erp_cust_az12&lt;/span&gt;" style="text;html=1;align=center;verticalAlign=middle;whiteSpace=wrap;rounded=0;fillColor=#ffcd28;gradientColor=#ffa500;strokeColor=#d79b00;" parent="1" vertex="1">
          <mxGeometry x="380" y="500" width="180" height="40" as="geometry" />
        </mxCell>
        <mxCell id="hZiMMcwlTSeB9dH6yMoZ-13" style="edgeStyle=orthogonalEdgeStyle;rounded=0;orthogonalLoop=1;jettySize=auto;html=1;exitX=1;exitY=0.5;exitDx=0;exitDy=0;" edge="1" parent="1" source="Sv1aqGPo5gHrHZcfWlAV-13" target="hZiMMcwlTSeB9dH6yMoZ-7">
          <mxGeometry relative="1" as="geometry" />
        </mxCell>
        <mxCell id="Sv1aqGPo5gHrHZcfWlAV-13" value="&lt;span style=&quot;font-size: 16px;&quot;&gt;erp_loc_a101&lt;/span&gt;" style="text;html=1;align=center;verticalAlign=middle;whiteSpace=wrap;rounded=0;fillColor=#ffcd28;gradientColor=#ffa500;strokeColor=#d79b00;" parent="1" vertex="1">
          <mxGeometry x="380" y="570.58" width="180" height="40" as="geometry" />
        </mxCell>
        <mxCell id="hZiMMcwlTSeB9dH6yMoZ-14" style="edgeStyle=orthogonalEdgeStyle;rounded=0;orthogonalLoop=1;jettySize=auto;html=1;exitX=1;exitY=0.5;exitDx=0;exitDy=0;entryX=0;entryY=0.5;entryDx=0;entryDy=0;" edge="1" parent="1" source="Sv1aqGPo5gHrHZcfWlAV-14" target="hZiMMcwlTSeB9dH6yMoZ-8">
          <mxGeometry relative="1" as="geometry" />
        </mxCell>
        <mxCell id="Sv1aqGPo5gHrHZcfWlAV-14" value="&lt;span style=&quot;font-size: 16px;&quot;&gt;erp_px_cat_g1v2&lt;/span&gt;" style="text;html=1;align=center;verticalAlign=middle;whiteSpace=wrap;rounded=0;fillColor=#ffcd28;gradientColor=#ffa500;strokeColor=#d79b00;" parent="1" vertex="1">
          <mxGeometry x="380" y="640" width="180" height="40" as="geometry" />
        </mxCell>
        <mxCell id="hZiMMcwlTSeB9dH6yMoZ-1" value="" style="rounded=0;whiteSpace=wrap;html=1;fillStyle=hatch;fillColor=none;gradientColor=#b3b3b3;strokeColor=#666666;dashed=1;" vertex="1" parent="1">
          <mxGeometry x="660" y="250" width="200" height="510" as="geometry" />
        </mxCell>
        <mxCell id="hZiMMcwlTSeB9dH6yMoZ-2" value="&lt;font style=&quot;font-size: 20px;&quot;&gt;&lt;b style=&quot;&quot;&gt;Silver layer&lt;/b&gt;&lt;/font&gt;" style="text;html=1;align=center;verticalAlign=middle;whiteSpace=wrap;rounded=0;fillColor=#f5f5f5;gradientColor=#b3b3b3;strokeColor=#666666;" vertex="1" parent="1">
          <mxGeometry x="660" y="190" width="200" height="50" as="geometry" />
        </mxCell>
        <mxCell id="hZiMMcwlTSeB9dH6yMoZ-3" value="&lt;span style=&quot;font-size: 16px;&quot;&gt;crm_sales_details&lt;/span&gt;" style="text;html=1;align=center;verticalAlign=middle;whiteSpace=wrap;rounded=0;fillColor=#f5f5f5;gradientColor=#b3b3b3;strokeColor=#666666;" vertex="1" parent="1">
          <mxGeometry x="670" y="270" width="180" height="40" as="geometry" />
        </mxCell>
        <mxCell id="hZiMMcwlTSeB9dH6yMoZ-4" value="&lt;span style=&quot;font-size: 16px;&quot;&gt;crm_cust_info&lt;/span&gt;" style="text;html=1;align=center;verticalAlign=middle;whiteSpace=wrap;rounded=0;fillColor=#f5f5f5;gradientColor=#b3b3b3;strokeColor=#666666;" vertex="1" parent="1">
          <mxGeometry x="670" y="330" width="180" height="40" as="geometry" />
        </mxCell>
        <mxCell id="hZiMMcwlTSeB9dH6yMoZ-5" value="&lt;span style=&quot;font-size: 16px;&quot;&gt;crm_prd_info&lt;/span&gt;" style="text;html=1;align=center;verticalAlign=middle;whiteSpace=wrap;rounded=0;fillColor=#f5f5f5;gradientColor=#b3b3b3;strokeColor=#666666;" vertex="1" parent="1">
          <mxGeometry x="670" y="400" width="180" height="40" as="geometry" />
        </mxCell>
        <mxCell id="hZiMMcwlTSeB9dH6yMoZ-6" value="&lt;span style=&quot;font-size: 16px;&quot;&gt;erp_cust_az12&lt;/span&gt;" style="text;html=1;align=center;verticalAlign=middle;whiteSpace=wrap;rounded=0;fillColor=#f5f5f5;gradientColor=#b3b3b3;strokeColor=#666666;" vertex="1" parent="1">
          <mxGeometry x="670" y="500" width="180" height="40" as="geometry" />
        </mxCell>
        <mxCell id="hZiMMcwlTSeB9dH6yMoZ-7" value="&lt;span style=&quot;font-size: 16px;&quot;&gt;erp_loc_a101&lt;/span&gt;" style="text;html=1;align=center;verticalAlign=middle;whiteSpace=wrap;rounded=0;fillColor=#f5f5f5;gradientColor=#b3b3b3;strokeColor=#666666;" vertex="1" parent="1">
          <mxGeometry x="670" y="570.58" width="180" height="40" as="geometry" />
        </mxCell>
        <mxCell id="hZiMMcwlTSeB9dH6yMoZ-8" value="&lt;span style=&quot;font-size: 16px;&quot;&gt;erp_px_cat_g1v2&lt;/span&gt;" style="text;html=1;align=center;verticalAlign=middle;whiteSpace=wrap;rounded=0;fillColor=#f5f5f5;gradientColor=#b3b3b3;strokeColor=#666666;" vertex="1" parent="1">
          <mxGeometry x="670" y="640" width="180" height="40" as="geometry" />
        </mxCell>
        <mxCell id="hZiMMcwlTSeB9dH6yMoZ-15" value="" style="rounded=0;whiteSpace=wrap;html=1;fillStyle=hatch;fillColor=none;gradientColor=#ffd966;strokeColor=#d6b656;dashed=1;" vertex="1" parent="1">
          <mxGeometry x="990" y="250" width="200" height="510" as="geometry" />
        </mxCell>
        <mxCell id="hZiMMcwlTSeB9dH6yMoZ-16" value="&lt;font style=&quot;font-size: 20px;&quot;&gt;&lt;b style=&quot;&quot;&gt;Gold layer&lt;/b&gt;&lt;/font&gt;" style="text;html=1;align=center;verticalAlign=middle;whiteSpace=wrap;rounded=0;fillColor=#fff2cc;gradientColor=#ffd966;strokeColor=#d6b656;" vertex="1" parent="1">
          <mxGeometry x="990" y="190" width="200" height="50" as="geometry" />
        </mxCell>
        <mxCell id="hZiMMcwlTSeB9dH6yMoZ-17" value="&lt;span style=&quot;font-size: 16px;&quot;&gt;fact_sales&lt;/span&gt;" style="text;html=1;align=center;verticalAlign=middle;whiteSpace=wrap;rounded=0;fillColor=#fff2cc;gradientColor=#ffd966;strokeColor=#d6b656;" vertex="1" parent="1">
          <mxGeometry x="1000" y="300.58" width="180" height="40" as="geometry" />
        </mxCell>
        <mxCell id="hZiMMcwlTSeB9dH6yMoZ-18" value="&lt;span style=&quot;font-size: 16px;&quot;&gt;dim_customers&lt;/span&gt;" style="text;html=1;align=center;verticalAlign=middle;whiteSpace=wrap;rounded=0;fillColor=#fff2cc;gradientColor=#ffd966;strokeColor=#d6b656;" vertex="1" parent="1">
          <mxGeometry x="1000" y="450" width="180" height="40" as="geometry" />
        </mxCell>
        <mxCell id="hZiMMcwlTSeB9dH6yMoZ-19" value="&lt;span style=&quot;font-size: 16px;&quot;&gt;dim_products&lt;/span&gt;" style="text;html=1;align=center;verticalAlign=middle;whiteSpace=wrap;rounded=0;fillColor=#fff2cc;gradientColor=#ffd966;strokeColor=#d6b656;" vertex="1" parent="1">
          <mxGeometry x="1000" y="600" width="180" height="40" as="geometry" />
        </mxCell>
        <mxCell id="hZiMMcwlTSeB9dH6yMoZ-27" value="" style="endArrow=classic;html=1;rounded=0;entryX=0;entryY=0.5;entryDx=0;entryDy=0;exitX=1;exitY=0.5;exitDx=0;exitDy=0;jumpStyle=gap;" edge="1" parent="1" source="hZiMMcwlTSeB9dH6yMoZ-3" target="hZiMMcwlTSeB9dH6yMoZ-17">
          <mxGeometry width="50" height="50" relative="1" as="geometry">
            <mxPoint x="820" y="320" as="sourcePoint" />
            <mxPoint x="870" y="270" as="targetPoint" />
          </mxGeometry>
        </mxCell>
        <mxCell id="hZiMMcwlTSeB9dH6yMoZ-28" value="" style="endArrow=classic;html=1;rounded=0;entryX=0;entryY=0.5;entryDx=0;entryDy=0;exitX=1;exitY=0.5;exitDx=0;exitDy=0;jumpStyle=gap;" edge="1" parent="1" source="hZiMMcwlTSeB9dH6yMoZ-4" target="hZiMMcwlTSeB9dH6yMoZ-18">
          <mxGeometry width="50" height="50" relative="1" as="geometry">
            <mxPoint x="830" y="360" as="sourcePoint" />
            <mxPoint x="900" y="391" as="targetPoint" />
          </mxGeometry>
        </mxCell>
        <mxCell id="hZiMMcwlTSeB9dH6yMoZ-29" value="" style="endArrow=classic;html=1;rounded=0;entryX=0;entryY=0.5;entryDx=0;entryDy=0;exitX=1;exitY=0.5;exitDx=0;exitDy=0;jumpStyle=gap;" edge="1" parent="1" source="hZiMMcwlTSeB9dH6yMoZ-5" target="hZiMMcwlTSeB9dH6yMoZ-19">
          <mxGeometry width="50" height="50" relative="1" as="geometry">
            <mxPoint x="820" y="460" as="sourcePoint" />
            <mxPoint x="890" y="491" as="targetPoint" />
          </mxGeometry>
        </mxCell>
        <mxCell id="hZiMMcwlTSeB9dH6yMoZ-30" value="" style="endArrow=classic;html=1;rounded=0;entryX=0;entryY=0.75;entryDx=0;entryDy=0;exitX=1;exitY=0.5;exitDx=0;exitDy=0;jumpStyle=gap;" edge="1" parent="1" source="hZiMMcwlTSeB9dH6yMoZ-6" target="hZiMMcwlTSeB9dH6yMoZ-18">
          <mxGeometry width="50" height="50" relative="1" as="geometry">
            <mxPoint x="820" y="500" as="sourcePoint" />
            <mxPoint x="890" y="531" as="targetPoint" />
          </mxGeometry>
        </mxCell>
        <mxCell id="hZiMMcwlTSeB9dH6yMoZ-31" value="" style="endArrow=classic;html=1;rounded=0;entryX=0;entryY=0.75;entryDx=0;entryDy=0;exitX=1;exitY=0.5;exitDx=0;exitDy=0;jumpStyle=gap;" edge="1" parent="1" source="hZiMMcwlTSeB9dH6yMoZ-7" target="hZiMMcwlTSeB9dH6yMoZ-18">
          <mxGeometry width="50" height="50" relative="1" as="geometry">
            <mxPoint x="830" y="580" as="sourcePoint" />
            <mxPoint x="900" y="611" as="targetPoint" />
          </mxGeometry>
        </mxCell>
        <mxCell id="hZiMMcwlTSeB9dH6yMoZ-32" value="" style="endArrow=classic;html=1;rounded=0;entryX=0;entryY=0.5;entryDx=0;entryDy=0;exitX=1;exitY=0.5;exitDx=0;exitDy=0;jumpStyle=gap;" edge="1" parent="1" source="hZiMMcwlTSeB9dH6yMoZ-8" target="hZiMMcwlTSeB9dH6yMoZ-19">
          <mxGeometry width="50" height="50" relative="1" as="geometry">
            <mxPoint x="830" y="650" as="sourcePoint" />
            <mxPoint x="900" y="681" as="targetPoint" />
          </mxGeometry>
        </mxCell>
      </root>
    </mxGraphModel>
  </diagram>
</mxfile>
